<?xml version="1.0" encoding="UTF-8" standalone="no"?>
<!-- Created with Inkscape (http://www.inkscape.org/) -->

<svg
   width="112.27683mm"
   height="186.38469mm"
   viewBox="0 0 112.27683 186.38469"
   version="1.1"
   id="svg1"
   xml:space="preserve"
   inkscape:version="1.3 (0e150ed6c4, 2023-07-21)"
   sodipodi:docname="South_Brazil.svg"
   inkscape:export-filename="Brazil_Macroregion.png"
   inkscape:export-xdpi="200"
   inkscape:export-ydpi="200"
   xmlns:inkscape="http://www.inkscape.org/namespaces/inkscape"
   xmlns:sodipodi="http://sodipodi.sourceforge.net/DTD/sodipodi-0.dtd"
   xmlns="http://www.w3.org/2000/svg"
   xmlns:svg="http://www.w3.org/2000/svg"><sodipodi:namedview
     id="namedview1"
     pagecolor="#ffffff"
     bordercolor="#000000"
     borderopacity="0.25"
     inkscape:showpageshadow="2"
     inkscape:pageopacity="0.0"
     inkscape:pagecheckerboard="0"
     inkscape:deskcolor="#d1d1d1"
     inkscape:document-units="mm"
     showguides="true"
     inkscape:zoom="0.769158"
     inkscape:cx="161.21525"
     inkscape:cy="350.38314"
     inkscape:window-width="1920"
     inkscape:window-height="1011"
     inkscape:window-x="1366"
     inkscape:window-y="32"
     inkscape:window-maximized="0"
     inkscape:current-layer="layer1" /><defs
     id="defs1"><clipPath
       clipPathUnits="userSpaceOnUse"
       id="clipPath1"><rect
         style="fill:#ff7f0e;fill-opacity:0.148065;stroke:#000000;stroke-width:0.177499"
         id="rect2"
         width="154.48067"
         height="94.310028"
         x="61.499088"
         y="203.81641" /></clipPath></defs><g
     inkscape:label="Layer 1"
     inkscape:groupmode="layer"
     id="layer1"
     transform="translate(18.59649,-36.672611)"><path
       style="fill:#ea9293;fill-opacity:1;stroke-width:1247.88"
       d=""
       id="path12"
       transform="matrix(0.26458333,0,0,0.26458333,-53.90498,8.6677094)" /><path
       style="fill:#c9b2de;fill-opacity:1;stroke:none;stroke-width:0;stroke-dasharray:none;stroke-opacity:1"
       d="m 24.048525,67.532199 c -0.90415,-0.07014 -1.972694,-0.289076 -2.374538,-0.486537 -1.160486,-0.570243 -4.253571,-1.170464 -5.820052,-1.129395 -0.789956,0.02072 -1.694109,-0.19567 -2.009225,-0.480846 -0.854123,-0.772972 -0.96034,-0.793287 -1.557279,-0.29787 -0.76263,0.632925 -1.532041,-0.299178 -2.18517,-2.647236 C 9.8228211,61.485703 9.4352965,60.688635 9.2410977,60.719051 9.0468988,60.749468 8.5592267,60.592493 8.1573829,60.370217 7.7555363,60.147938 7.1642376,60.005827 6.84338,60.054416 5.5718878,60.246955 5.4207895,59.300567 6.179633,55.897097 7.0406163,52.035532 7.0369703,52.067028 6.7132182,51.289923 6.5405115,50.875366 6.6784414,50.614498 7.149368,50.465032 7.5987072,50.322416 7.9957542,49.631319 8.2916562,48.47677 8.5984856,47.279586 9.0830118,46.457356 9.789436,45.935077 c 0.574326,-0.424619 1.150043,-1.253813 1.279377,-1.842656 0.279945,-1.274583 0.91772,-1.868789 3.116244,-2.90335 1.579737,-0.743379 3.99194,-0.840404 5.893001,-0.237032 0.33311,0.105727 0.884483,-0.0866 1.225275,-0.427387 0.425788,-0.425791 0.698378,-0.49218 0.871397,-0.212227 0.138477,0.224062 0.986613,0.50324 1.884743,0.620394 3.125499,0.407694 5.544511,1.054931 5.727785,1.532539 0.129598,0.337724 0.992248,0.480679 2.90064,0.480679 1.493904,0 2.914737,0.169997 3.157411,0.377772 0.242673,0.207774 0.721032,0.577654 1.063021,0.821954 0.445524,0.318262 0.647674,1.065557 0.713082,2.636065 0.07337,1.761874 0.309729,2.504509 1.204769,3.785434 0.804966,1.152014 1.113489,2.012386 1.113489,3.105165 v 1.511615 l 2.471422,0.182658 c 1.359281,0.100462 2.449166,0.309901 2.421962,0.465423 -0.0272,0.155522 0.04696,0.764879 0.164806,1.354127 0.187687,0.938438 0.348353,1.054391 1.294969,0.934591 1.369012,-0.17326 1.874075,0.809423 0.844505,1.64312 -0.385705,0.312325 -1.138357,1.260234 -1.672559,2.106465 -0.916879,1.452427 -1.061601,1.535181 -2.584053,1.477597 -0.979365,-0.03704 -1.97617,0.177101 -2.538047,0.545256 -1.197229,0.784458 -1.947508,0.764431 -3.637325,-0.09709 -1.106779,-0.564269 -1.592868,-0.628997 -2.458228,-0.32733 -0.593259,0.206812 -1.460156,0.280268 -1.926442,0.163238 -0.615206,-0.154406 -1.061884,0.03345 -1.628177,0.684741 -0.455623,0.524013 -1.00803,0.810168 -1.327401,0.687615 -1.315127,-0.504663 -3.593396,1.363671 -2.944058,2.414323 0.125288,0.202721 0.01259,0.339863 -0.250405,0.304761 -0.263011,-0.0351 -1.217961,-0.121206 -2.122114,-0.191342 z"
       id="path26"
       inkscape:export-filename="South_Brazil.png"
       inkscape:export-xdpi="200"
       inkscape:export-ydpi="200" /><path
       style="fill:#c9b2de;fill-opacity:1;stroke:none;stroke-width:0;stroke-dasharray:none;stroke-opacity:1"
       d="m 36.811183,86.327032 c -0.369824,-1.448326 -0.155845,-2.541553 0.607865,-3.105613 1.922309,-1.41977 -0.443233,-3.19828 -3.674714,-2.7628 -1.30185,0.17544 -2.147681,-0.378672 -3.496376,-2.290517 -0.892257,-1.264819 -5.122545,-4.170407 -6.071756,-4.170407 -0.488339,0 -1.333307,-0.32844 -1.877708,-0.729869 -0.544401,-0.401431 -1.729581,-0.819126 -2.633731,-0.928214 -1.582754,-0.190965 -3.078197,-0.503298 -4.292436,-0.896509 -0.706673,-0.22884 -2.917119,-0.186359 -3.66908,0.07052 -0.828752,0.28311 -0.836729,0.257352 -0.730629,-2.359311 l 0.107273,-2.645542 1.095941,0.07083 c 0.602769,0.03896 1.67131,0.165213 2.374538,0.280572 0.70323,0.115355 2.429338,0.390295 3.835794,0.610973 1.406459,0.220678 2.770203,0.572865 3.030548,0.782637 0.260342,0.209773 1.20559,0.353709 2.100553,0.319858 1.23394,-0.04667 1.627201,0.0716 1.627201,0.489373 0,0.670558 0.475046,0.699312 1.557541,0.09428 1.121722,-0.626962 1.281253,-0.912542 1.084551,-1.941512 -0.153866,-0.804897 -0.04888,-0.88967 1.10185,-0.88967 0.718761,0 1.67587,-0.317748 2.200761,-0.730628 1.007581,-0.792562 1.726883,-0.944729 1.726883,-0.365313 0,0.200922 0.246589,0.365313 0.54797,0.365313 0.301385,0 0.547971,-0.164391 0.547971,-0.365313 0,-0.607039 2.816204,-0.438639 3.054617,0.182658 0.298109,0.776856 2.829129,0.715058 3.740396,-0.09133 0.397343,-0.351615 0.952339,-0.690671 1.233321,-0.753459 2.461689,-0.550093 2.544098,-0.538359 2.906104,0.41379 0.262826,0.691287 0.207484,1.233151 -0.211783,2.073592 -0.35465,0.710912 -0.485362,1.576044 -0.348419,2.306024 0.120544,0.642546 0.215958,2.071857 0.212031,3.176246 -0.0094,2.632043 -0.0055,3.264421 0.02734,4.507283 0.01511,0.570928 -0.241183,1.892107 -0.569513,2.935951 -0.455644,1.448615 -0.844984,2.007685 -1.644666,2.36166 -0.576236,0.255067 -1.899814,1.276462 -2.941283,2.269766 -1.614529,1.539861 -2.459095,2.105779 -2.55896,1.714682 z"
       id="path27" /><path
       style="fill:#c9b2de;fill-opacity:1;stroke:none;stroke-width:0;stroke-dasharray:none;stroke-opacity:1"
       d="m 12.226786,117.58185 c -0.128487,-0.12848 -0.233612,-0.95113 -0.233612,-1.82809 0,-1.18673 0.163494,-1.65378 0.6393,-1.82628 0.351615,-0.12748 1.077179,-0.7388 1.612368,-1.35845 l 0.973066,-1.12668 -0.762762,-0.82195 c -0.419518,-0.4521 -1.00294,-0.82196 -1.29649,-0.82196 -0.720722,0 -2.261423,-1.70823 -2.261423,-2.50732 0,-0.72311 -1.8553084,-2.24176 -2.738686,-2.24176 -0.3170158,0 -1.295355,-0.73976 -2.1740891,-1.64392 -0.8787368,-0.90415 -1.9159908,-1.64391 -2.3050156,-1.64391 -0.3890248,0 -1.0745655,-0.31851 -1.5234259,-0.70781 -0.4488603,-0.38929 -1.0493824,-0.61829 -1.33449477,-0.50888 -0.2851097,0.10941 -0.51838224,0.0512 -0.51838224,-0.12937 0,-0.461558 -2.47777529,-3.0377 -2.92171169,-3.0377 -0.2013611,0 -0.7066306,0.340519 -1.1228229,0.756709 l -0.7567109,0.756711 -0.6717798,-1.317662 c -0.3694826,-0.724715 -1.1386026,-1.681703 -1.709158,-2.126637 -0.5705554,-0.444936 -1.5180707,-1.265102 -2.1055885,-1.82259 -1.2697806,-1.204878 -2.3313916,-1.524063 -4.0171656,-1.207812 -1.134999,0.212929 -1.226985,0.165457 -1.042962,-0.538245 0.111004,-0.424473 0.481246,-0.881348 0.822762,-1.015275 0.874826,-0.343064 2.931041,-2.135735 2.931041,-2.555372 0,-0.192397 0.246586,-0.444436 0.5479705,-0.560088 0.3013843,-0.115652 0.5479706,-0.544219 0.5479706,-0.952371 0,-0.475721 0.2400962,-0.742092 0.6688958,-0.742092 0.3678925,0 0.9021657,-0.441167 1.1872701,-0.980372 0.7213229,-1.364202 3.3090061,-3.748553 4.0801792,-3.75957 0.4126759,-0.0059 0.6440276,-0.300511 0.6526371,-0.831091 0.00915,-0.56452 0.5102728,-1.136599 1.5999777,-1.826569 0.87265141,-0.552535 1.75886799,-1.004613 1.96937313,-1.004613 0.21050247,0 0.73125537,-0.443073 1.15722927,-0.984609 0.7035086,-0.894369 2.7898407,-1.918589 3.9362829,-1.932398 0.2511531,-0.003 0.7736417,-0.293185 1.1610843,-0.6448 0.3874426,-0.351613 0.922946,-0.814028 1.1900059,-1.027586 0.5687483,-0.454808 7.5874055,-0.382998 7.9269405,0.0811 0.123605,0.168952 1.275458,0.344937 2.559672,0.391078 1.869672,0.06717 2.437947,0.23096 2.851896,0.821954 0.288245,0.41153 0.927967,0.738063 1.445953,0.738063 0.946983,0 4.845402,2.136476 4.864235,2.665778 0.02339,0.657362 3.272226,3.544554 3.988546,3.544554 0.423989,0 0.77089,0.171598 0.77089,0.381328 0,0.20973 0.205491,0.354645 0.456644,0.322032 0.251153,-0.03262 1.079511,-0.03982 1.840799,-0.01601 1.382392,0.04323 1.383258,0.04425 0.680069,0.799034 -0.409276,0.439303 -0.625962,1.054507 -0.517501,1.469263 0.122764,0.469458 -0.152535,1.027805 -0.804865,1.632362 -1.110112,1.028817 -0.870339,1.73866 0.72232,2.138392 l 0.886241,0.22243 -1.26654,2.523665 c -0.696595,1.388017 -1.266539,2.757879 -1.266539,3.044139 0,0.935186 -3.047775,5.150451 -5.419466,7.49545 -1.276262,1.26191 -3.089211,2.68393 -4.028773,3.16004 -2.054381,1.04103 -5.039537,4.12838 -5.38054,5.56475 -0.544703,2.29442 -1.662009,4.09602 -3.510084,5.65992 -2.314771,1.95881 -2.675618,2.18651 -2.981031,1.88108 z"
       id="path28" /><path
       style="fill:#9467bd;fill-opacity:1;stroke:#000000;stroke-width:0.5;stroke-dasharray:none;stroke-opacity:1"
       d="m 21.856642,66.844857 c -0.90415,-0.290576 -2.959039,-0.711319 -4.566419,-0.934982 -1.607381,-0.223666 -3.235608,-0.624671 -3.618289,-0.891125 -0.468659,-0.326321 -0.903313,-0.37339 -1.331565,-0.144198 -0.801897,0.429162 -1.185604,-0.01196 -2.06079,-2.369087 C 9.6780147,60.885279 9.4439854,60.65144 7.8848938,60.11274 6.9345104,59.784363 6.0591259,59.417892 5.9395925,59.298355 5.8200564,59.178822 6.00468,57.711027 6.3498686,56.036591 6.6950546,54.362154 6.9608603,52.473333 6.9405482,51.839212 6.9186672,51.1561 7.1135222,50.605714 7.4187191,50.488598 7.702027,50.379884 8.133229,49.625377 8.37695,48.811915 c 0.2437183,-0.813461 0.9235889,-2.013987 1.5108264,-2.667836 0.5872346,-0.653851 1.2955086,-1.729586 1.5739426,-2.390526 0.384725,-0.913254 1.002744,-1.429015 2.574698,-2.148679 1.821055,-0.833707 2.366123,-0.919305 4.557148,-0.715671 1.615017,0.150098 2.57347,0.09413 2.73018,-0.159438 0.132818,-0.214903 0.512543,-0.284004 0.843836,-0.153554 0.33129,0.130451 1.811647,0.471014 3.289681,0.756809 1.478034,0.285795 3.204141,0.753886 3.835794,1.040199 0.63165,0.286314 2.304039,0.627565 3.716414,0.758336 3.470431,0.321325 4.084989,0.84356 4.510519,3.832931 0.192217,1.350333 0.745662,3.083605 1.283118,4.018449 0.536591,0.933347 0.947007,2.217656 0.949505,2.971282 l 0.0044,1.327367 2.371548,0.25397 c 2.279618,0.244129 2.383094,0.298876 2.669569,1.412484 0.246509,0.95826 0.49961,1.178301 1.464246,1.272987 0.641422,0.06296 1.166225,0.267338 1.166225,0.454171 0,0.18683 -0.698664,1.24433 -1.552583,2.35 -1.184621,1.533863 -1.780733,2.010637 -2.515248,2.011698 -0.529463,7.94e-4 -1.814486,0.2765 -2.855603,0.612746 -1.742641,0.562808 -2.028788,0.565261 -3.60376,0.03089 -2.051462,-0.696039 -5.496441,-0.40086 -6.560536,0.562136 -0.378132,0.342205 -1.126644,0.622189 -1.663362,0.622189 -1.062127,0 -2.437101,1.133573 -2.437101,2.009225 0,0.710271 -2.126874,0.696092 -4.383764,-0.02922 z"
       id="path46" /><path
       style="fill:#9467bd;fill-opacity:1;stroke:#000000;stroke-width:0.5;stroke-dasharray:none;stroke-opacity:1"
       d="m 36.834504,85.189028 c 0,-0.475211 0.340106,-1.296393 0.75579,-1.82485 1.425705,-1.812491 -0.07527,-3.156151 -3.525676,-3.156151 -1.432399,0 -1.765313,-0.197454 -3.931325,-2.331712 -1.460518,-1.439109 -3.183006,-2.706651 -4.499573,-3.311139 -1.173242,-0.538684 -2.597488,-1.2149 -3.164993,-1.502709 -1.567434,-0.794911 -8.286006,-2.072293 -9.836253,-1.870133 l -1.369925,0.178641 v -2.339776 c 0,-1.631773 0.138176,-2.337792 0.456641,-2.333223 2.283984,0.03277 11.723193,1.925198 13.36267,2.679023 1.204574,0.553857 2.740777,-0.361667 2.986416,-1.779802 0.155681,-0.898771 0.399624,-1.111515 1.474949,-1.286304 0.708631,-0.115186 1.529421,-0.364371 1.823982,-0.553746 0.935421,-0.601396 5.215112,-0.73556 5.403828,-0.169408 0.218829,0.656482 3.261165,0.41724 4.529731,-0.356206 2.441408,-1.488527 4.075001,-0.623159 3.182024,1.685624 -0.267507,0.691636 -0.32979,2.556896 -0.18153,5.436626 0.279169,5.422535 -0.289809,8.372332 -1.832079,9.498156 -0.550486,0.401846 -1.904677,1.511485 -3.009307,2.465869 -1.104633,0.954381 -2.147236,1.735238 -2.316895,1.735238 -0.169662,0 -0.308475,-0.388808 -0.308475,-0.864018 z"
       id="path47" /><path
       style="fill:#9467bd;fill-opacity:1;stroke:#000000;stroke-width:0.5;stroke-dasharray:none;stroke-opacity:1"
       d="m 12.316421,116.66091 c -0.08568,-1.70024 0.125233,-2.16476 1.619269,-3.56629 1.751721,-1.64325 1.649605,-2.30735 -0.514464,-3.34587 -0.725197,-0.348 -1.632672,-1.25627 -2.172573,-2.17445 -0.590997,-1.0051 -1.5844231,-1.95943 -2.7398506,-2.63202 -0.9969711,-0.58035 -2.2278948,-1.44669 -2.7353868,-1.92519 -0.8706776,-0.82095 -4.2358124,-2.71197 -4.83192924,-2.71528 -0.15121467,-8e-4 -0.86900543,-0.659095 -1.59509088,-1.462786 -1.42712278,-1.579652 -2.10733738,-1.776976 -3.08272118,-0.894265 -0.5753974,0.520727 -0.6912478,0.462248 -1.4198971,-0.71673 -0.4363587,-0.706043 -1.7845616,-2.111928 -2.9960014,-3.124184 -1.9887278,-1.661739 -2.3768998,-1.840468 -3.9972458,-1.840468 -0.987044,0 -1.794623,-0.162327 -1.794623,-0.36073 0,-0.198401 0.616465,-0.756986 1.369925,-1.241301 1.199417,-0.770966 3.3791521,-2.947519 3.3791521,-3.374215 0,-0.345982 5.3168629,-5.633148 5.8325517,-5.799979 0.3082396,-0.09972 0.834599,-0.66466 1.1696858,-1.255429 0.3350869,-0.59077 1.32143239,-1.435272 2.19187979154,-1.876671 C 0.86955144,77.91365 2.1190224,77.083832 2.775705,76.511007 c 0.6566826,-0.572826 1.6430307,-1.146088 2.1918824,-1.273919 0.5488517,-0.127831 1.7823762,-0.725024 2.7411653,-1.3271 1.7005432,-1.067861 1.8258446,-1.089268 5.1143903,-0.873712 4.91811,0.322366 7.610629,0.754819 8.850844,1.421556 0.602766,0.324046 2.041589,1.022932 3.197381,1.553078 1.24867,0.572746 2.805251,1.708943 3.835795,2.79986 2.048242,2.168239 3.939931,3.223826 5.777333,3.223826 1.129405,0 1.290608,0.09733 1.058828,0.6393 -0.150373,0.351612 -0.349557,1.081466 -0.44263,1.62189 -0.09307,0.540425 -0.480798,1.264566 -0.861615,1.609201 -0.966417,0.874596 -0.863658,1.551427 0.312213,2.056429 0.552538,0.237297 1.056474,0.463725 1.119863,0.503172 0.06339,0.03945 -0.367253,1.033605 -0.956972,2.209241 -0.589722,1.175637 -1.196086,2.548499 -1.347478,3.050805 -0.781701,2.593639 -5.81252,8.301506 -9.261263,10.507636 -3.065007,1.96067 -4.933296,4.08596 -5.884029,6.69343 -0.824979,2.26258 -3.203689,5.14683 -5.067221,6.14418 -0.706776,0.37825 -0.800404,0.33255 -0.837771,-0.40897 z"
       id="path48" /><path
       style="fill:#9467bd;fill-opacity:1;stroke:#9367bc;stroke-width:1;stroke-dasharray:none;stroke-opacity:1"
       d="m 54.758058,107.15604 v -3.10516 h 5.297048 5.297046 v 3.10516 3.10517 h -5.297046 -5.297048 z"
       id="path69" /><text
       xml:space="preserve"
       style="font-style:normal;font-variant:normal;font-weight:normal;font-stretch:normal;font-size:7.05556px;font-family:sans-serif;-inkscape-font-specification:'sans-serif, ';font-variant-ligatures:normal;font-variant-caps:normal;font-variant-numeric:normal;font-variant-east-asian:normal;fill:#9467bd;fill-opacity:1;stroke:none;stroke-width:0;stroke-dasharray:none;stroke-opacity:1"
       x="71.875793"
       y="109.84878"
       id="text69-0"><tspan
         sodipodi:role="line"
         id="tspan69-8"
         style="font-style:normal;font-variant:normal;font-weight:bold;font-stretch:normal;font-size:7.05556px;font-family:'Nimbus Roman';-inkscape-font-specification:'Nimbus Roman, Bold';font-variant-ligatures:normal;font-variant-caps:normal;font-variant-numeric:normal;font-variant-east-asian:normal;stroke-width:0"
         x="71.875793"
         y="109.84878">South</tspan></text><path
       style="fill:#cecece;fill-opacity:1;stroke:#000000;stroke-width:0.367731"
       d="m 48.612298,57.166872 c -0.0099,-0.573217 -0.40105,-0.851334 -1.197149,-0.851334 -0.855769,0 -1.225296,-0.302339 -1.33781,-1.094573 -0.132953,-0.936136 -0.493676,-1.116187 -2.492103,-1.243902 -1.882402,-0.1203 -2.309474,-0.309739 -2.196859,-0.974471 0.07688,-0.453823 -0.371189,-1.651915 -0.995717,-2.662422 -0.624528,-1.010507 -1.135504,-2.573637 -1.135504,-3.473617 0,-1.097047 -0.476623,-2.214557 -1.4462,-3.39082 -1.35383,-1.642433 -1.624152,-1.754492 -4.232346,-1.754492 -1.532382,0 -2.994115,-0.180848 -3.2483,-0.401886 -0.619313,-0.538557 -4.238374,-1.655101 -4.84468,-1.494671 -0.265231,0.07018 -1.405678,-0.163698 -2.534327,-0.519729 -1.349833,-0.425805 -2.265468,-0.486281 -2.67562,-0.176723 -0.342942,0.258833 -1.280276,0.343598 -2.082961,0.188364 l -1.459431,-0.282239 1.76009,-1.08894 c 1.743046,-1.078399 1.941893,-1.08894 20.538366,-1.08894 16.038358,0 18.739527,0.100983 18.512691,0.692099 -0.146071,0.380656 0.134443,1.095132 0.623364,1.587723 0.488924,0.49259 1.170935,1.523243 1.515586,2.290339 0.593379,1.320702 0.745683,1.378405 2.86978,1.087265 1.233728,-0.169103 2.558216,-0.568946 2.943312,-0.888545 0.38509,-0.319598 1.765125,-0.956124 3.066743,-1.414507 2.026452,-0.713639 2.44834,-0.734909 2.935433,-0.147992 0.312872,0.376986 1.144066,0.708054 1.847098,0.735708 1.054272,0.04147 0.949847,0.137245 -0.595992,0.546616 -1.427496,0.378032 -2.029516,0.867974 -2.525689,2.055485 -0.745945,1.785286 -4.02174,4.158292 -5.740289,4.158292 -1.371478,0 -7.711701,3.077813 -8.63705,4.192791 -0.35343,0.425855 -1.899994,1.628164 -3.43681,2.671794 -1.536814,1.043633 -3.01665,2.27937 -3.28852,2.746087 -0.469736,0.806384 -0.495048,0.806246 -0.509106,-0.0028 z"
       id="path2" /><path
       style="fill:#cecece;fill-opacity:1;stroke:#000000;stroke-width:0.367731"
       d="m 77.407233,41.854757 c -0.877282,-0.108487 -1.562814,-0.456551 -1.52341,-0.773477 0.178916,-1.43896 -0.133472,-1.792423 -1.58414,-1.792423 -1.976567,0 -1.524196,-0.424008 1.641951,-1.539004 2.029302,-0.714645 3.999095,-0.893376 9.845802,-0.893376 h 7.308972 l -1.565791,1.09457 c -1.091195,0.762805 -1.568339,1.487485 -1.574199,2.390873 -0.0082,1.254607 -0.110951,1.301549 -3.196477,1.459431 -2.839664,0.145302 -3.163641,0.07014 -2.964529,-0.687721 0.122947,-0.467968 0.01556,-0.979394 -0.238659,-1.136504 -0.633021,-0.391229 -2.952938,1.186897 -2.595348,1.765488 0.286064,0.462862 -0.51398,0.488106 -3.554172,0.112143 z"
       id="path3" /><path
       style="fill:#cecece;fill-opacity:1;stroke:#000000;stroke-width:0.367731"
       d="m 61.083738,40.910446 c -0.178377,-0.178374 -0.324318,-0.710909 -0.324318,-1.183407 0,-0.472501 -0.449879,-1.001879 -0.999734,-1.176396 -0.549852,-0.174516 -0.914977,-0.572367 -0.81139,-0.884115 0.130033,-0.391332 2.435125,-0.598871 7.445547,-0.670357 l 7.257204,-0.103544 -3.162097,1.190043 c -1.739154,0.654523 -3.820911,1.193675 -4.626125,1.198115 -0.930963,0.0051 -1.685269,0.362334 -2.071648,0.981027 -0.592373,0.94854 -2.056718,1.299359 -2.707439,0.648634 z"
       id="path4" /><path
       style="fill:#cecece;fill-opacity:1;stroke:#000000;stroke-width:0.367731"
       d="M 5.3614858,48.711638 C 4.9061617,48.197198 4.2840178,48.058676 3.4155813,48.278375 2.7134591,48.456 1.4442344,48.717168 0.59508593,48.858747 c -1.52648178,0.254513 -1.54740767,0.23078 -1.85367873,-2.102234 -0.1703732,-1.297808 -0.500724,-2.830174 -0.7341156,-3.405259 -0.2333889,-0.575082 -0.3241675,-1.450742 -0.2017262,-1.945905 0.3896254,-1.575691 -1.4966606,-3.97247 -3.3014523,-4.194934 -0.8844941,-0.109027 3.9741448,-0.220392 10.7969789,-0.247475 9.776291,-0.03881 12.20883,0.07356 11.478741,0.530241 -0.509529,0.318717 -1.6041,1.136393 -2.432383,1.817055 -0.828286,0.680662 -2.088962,1.603631 -2.801509,2.051042 -0.730983,0.458986 -1.436796,1.456626 -1.6197022,2.289386 -0.1782894,0.811753 -0.6000035,1.475912 -0.9371383,1.475912 -0.7077736,0 -1.7421013,2.035424 -1.7421013,3.428228 0,1.132192 -0.9521401,1.211389 -1.8855134,0.156834 z"
       id="path5" /><path
       style="fill:#c9b2de;fill-opacity:1;stroke:none;stroke-width:0;stroke-dasharray:none;stroke-opacity:1"
       d="m 19.646128,172.89608 c -0.90415,-0.0701 -1.972694,-0.28908 -2.374538,-0.48654 -1.160486,-0.57024 -4.253571,-1.17046 -5.820052,-1.12939 -0.789956,0.0207 -1.6941088,-0.19567 -2.0092248,-0.48085 -0.854123,-0.77297 -0.96034,-0.79329 -1.557279,-0.29787 -0.76263,0.63293 -1.532041,-0.29918 -2.18517,-2.64723 -0.27944,-1.00461 -0.666964,-1.80168 -0.861163,-1.77127 -0.194199,0.0304 -0.681871,-0.12655 -1.083715,-0.34883 -0.401847,-0.22228 -0.993145,-0.36439 -1.314003,-0.3158 -1.271492,0.19254 -1.422591,-0.75385 -0.663747,-4.15732 0.860983,-3.86157 0.857337,-3.83007 0.533585,-4.60717 -0.172706,-0.41456 -0.03478,-0.67543 0.43615,-0.8249 0.449339,-0.14261 0.846386,-0.83371 1.142288,-1.98826 0.30683,-1.19718 0.791356,-2.01941 1.49778,-2.54169 0.574326,-0.42462 1.150043,-1.25381 1.279377,-1.84266 0.279945,-1.27458 0.91772,-1.86879 3.116244,-2.90335 1.5797368,-0.74338 3.9919398,-0.8404 5.8930008,-0.23703 0.33311,0.10573 0.884483,-0.0866 1.225275,-0.42739 0.425788,-0.42579 0.698378,-0.49218 0.871397,-0.21222 0.138477,0.22406 0.986613,0.50324 1.884743,0.62039 3.125499,0.4077 5.544511,1.05493 5.727785,1.53254 0.129598,0.33772 0.992248,0.48068 2.90064,0.48068 1.493904,0 2.914737,0.17 3.157411,0.37777 0.242673,0.20778 0.721032,0.57766 1.063021,0.82196 0.445524,0.31826 0.647674,1.06555 0.713082,2.63606 0.07337,1.76187 0.309729,2.50451 1.204769,3.78543 0.804966,1.15202 1.113489,2.01239 1.113489,3.10517 v 1.51161 l 2.471422,0.18266 c 1.359281,0.10046 2.449166,0.3099 2.421962,0.46543 -0.0272,0.15552 0.04696,0.76487 0.164806,1.35412 0.187687,0.93844 0.348353,1.05439 1.294969,0.93459 1.369012,-0.17326 1.874075,0.80943 0.844505,1.64312 -0.385705,0.31233 -1.138357,1.26024 -1.672559,2.10647 -0.916879,1.45243 -1.061601,1.53518 -2.584053,1.4776 -0.979365,-0.037 -1.97617,0.17709 -2.538047,0.54525 -1.197229,0.78446 -1.947508,0.76443 -3.637325,-0.0971 -1.106779,-0.56427 -1.592868,-0.629 -2.458228,-0.32733 -0.593259,0.20681 -1.460156,0.28027 -1.926442,0.16324 -0.615206,-0.15441 -1.061884,0.0335 -1.628177,0.68474 -0.455623,0.52401 -1.00803,0.81017 -1.327401,0.68761 -1.315127,-0.50466 -3.593396,1.36367 -2.944058,2.41433 0.125288,0.20272 0.01259,0.33986 -0.250405,0.30476 -0.263011,-0.0351 -1.217961,-0.12121 -2.122114,-0.19135 z"
       id="path26-5" /><path
       style="fill:#c9b2de;fill-opacity:1;stroke:none;stroke-width:0;stroke-dasharray:none;stroke-opacity:1"
       d="m 32.408786,191.69091 c -0.369824,-1.44832 -0.155845,-2.54155 0.607865,-3.10561 1.922309,-1.41977 -0.443233,-3.19828 -3.674714,-2.7628 -1.30185,0.17544 -2.147681,-0.37867 -3.496376,-2.29052 -0.892257,-1.26482 -5.122545,-4.1704 -6.071756,-4.1704 -0.488339,0 -1.333307,-0.32844 -1.877708,-0.72987 -0.544401,-0.40143 -1.729581,-0.81913 -2.633731,-0.92822 -1.582754,-0.19096 -3.078197,-0.5033 -4.292436,-0.89651 -0.706673,-0.22884 -2.9171188,-0.18636 -3.6690798,0.0705 -0.828752,0.28311 -0.836729,0.25736 -0.730629,-2.35931 l 0.107273,-2.64554 1.095941,0.0708 c 0.602769,0.039 1.67131,0.16521 2.3745378,0.28057 0.70323,0.11536 2.429338,0.3903 3.835794,0.61098 1.406459,0.22067 2.770203,0.57286 3.030548,0.78263 0.260342,0.20978 1.20559,0.35371 2.100553,0.31986 1.23394,-0.0467 1.627201,0.0716 1.627201,0.48937 0,0.67056 0.475046,0.69932 1.557541,0.0943 1.121722,-0.62696 1.281253,-0.91254 1.084551,-1.94151 -0.153866,-0.8049 -0.04888,-0.88967 1.10185,-0.88967 0.718761,0 1.67587,-0.31775 2.200761,-0.73063 1.007581,-0.79256 1.726883,-0.94473 1.726883,-0.36531 0,0.20092 0.246589,0.36531 0.54797,0.36531 0.301385,0 0.547971,-0.16439 0.547971,-0.36531 0,-0.60704 2.816204,-0.43864 3.054617,0.18266 0.298109,0.77685 2.829129,0.71506 3.740396,-0.0913 0.397343,-0.35162 0.952339,-0.69067 1.233321,-0.75346 2.461689,-0.55009 2.544098,-0.53836 2.906104,0.41379 0.262826,0.69129 0.207484,1.23315 -0.211783,2.07359 -0.35465,0.71091 -0.485362,1.57605 -0.348419,2.30603 0.120544,0.64254 0.215958,2.07185 0.212031,3.17624 -0.0094,2.63204 -0.0055,3.26442 0.02734,4.50728 0.01511,0.57093 -0.241183,1.89211 -0.569513,2.93596 -0.455644,1.44861 -0.844984,2.00768 -1.644666,2.36166 -0.576236,0.25506 -1.899814,1.27646 -2.941283,2.26976 -1.614529,1.53986 -2.459095,2.10578 -2.55896,1.71468 z"
       id="path27-3" /><path
       style="fill:#c9b2de;fill-opacity:1;stroke:none;stroke-width:0;stroke-dasharray:none;stroke-opacity:1"
       d="m 7.8243892,222.94573 c -0.128487,-0.12848 -0.233612,-0.95113 -0.233612,-1.82809 0,-1.18673 0.163494,-1.65378 0.6393,-1.82628 0.351615,-0.12748 1.077179,-0.7388 1.612368,-1.35845 l 0.9730658,-1.12668 -0.762762,-0.82195 c -0.4195178,-0.4521 -1.0029398,-0.82196 -1.2964898,-0.82196 -0.720722,0 -2.261423,-1.70823 -2.261423,-2.50732 0,-0.72311 -1.855308,-2.24176 -2.738686,-2.24176 -0.317016,0 -1.295355,-0.73976 -2.174089,-1.64392 -0.878737,-0.90415 -1.915991,-1.64391 -2.305016,-1.64391 -0.389025,0 -1.074565,-0.31851 -1.523426,-0.70781 -0.44886,-0.38929 -1.049382,-0.61829 -1.334494,-0.50888 -0.28511,0.10941 -0.518383,0.0512 -0.518383,-0.12937 0,-0.46156 -2.477775,-3.0377 -2.921711,-3.0377 -0.201361,0 -0.706631,0.34052 -1.122823,0.75671 l -0.756711,0.75671 -0.67178,-1.31766 c -0.369482,-0.72472 -1.1386032,-1.68171 -1.7091582,-2.12664 -0.570555,-0.44494 -1.518071,-1.2651 -2.105588,-1.82259 -1.269781,-1.20488 -2.331392,-1.52406 -4.017166,-1.20781 -1.134999,0.21293 -1.226985,0.16546 -1.042962,-0.53825 0.111004,-0.42447 0.481246,-0.88134 0.822762,-1.01527 0.874826,-0.34307 2.931041,-2.13574 2.931041,-2.55537 0,-0.1924 0.246586,-0.44444 0.547971,-0.56009 0.301384,-0.11565 0.54797,-0.54422 0.54797,-0.95237 0,-0.47572 0.240096,-0.74209 0.668896,-0.74209 0.367892,0 0.902166,-0.44117 1.18727,-0.98038 0.721323,-1.3642 3.3090062,-3.74855 4.0801792,-3.75957 0.412676,-0.006 0.644028,-0.30051 0.652637,-0.83109 0.0091,-0.56452 0.510273,-1.1366 1.599978,-1.82657 0.872651,-0.55253 1.758868,-1.00461 1.969373,-1.00461 0.210503,0 0.731256,-0.44307 1.157229,-0.98461 0.703509,-0.89437 2.789841,-1.91859 3.936283,-1.9324 0.251153,-0.003 0.773642,-0.29318 1.161085,-0.6448 0.387442,-0.35161 0.922946,-0.81402 1.190006,-1.02758 0.568748,-0.45481 7.5874048,-0.383 7.9269398,0.0811 0.123605,0.16895 1.275458,0.34493 2.559672,0.39108 1.869672,0.0672 2.437947,0.23096 2.851896,0.82195 0.288245,0.41153 0.927967,0.73806 1.445953,0.73806 0.946983,0 4.845402,2.13648 4.864235,2.66578 0.02339,0.65736 3.272226,3.54455 3.988546,3.54455 0.423989,0 0.77089,0.1716 0.77089,0.38133 0,0.20973 0.205491,0.35465 0.456644,0.32203 0.251153,-0.0326 1.079511,-0.0398 1.840799,-0.016 1.382392,0.0432 1.383258,0.0442 0.680069,0.79904 -0.409276,0.4393 -0.625962,1.05451 -0.517501,1.46926 0.122764,0.46946 -0.152535,1.02781 -0.804865,1.63236 -1.110112,1.02882 -0.870339,1.73866 0.72232,2.1384 l 0.886241,0.22243 -1.26654,2.52366 c -0.696595,1.38802 -1.266539,2.75788 -1.266539,3.04414 0,0.93519 -3.047775,5.15045 -5.419466,7.49545 -1.276262,1.26191 -3.089211,2.68393 -4.028773,3.16004 -2.054381,1.04103 -5.039537,4.12838 -5.38054,5.56475 -0.544703,2.29442 -1.662009,4.09602 -3.510084,5.65992 -2.3147708,1.95881 -2.6756178,2.18651 -2.9810308,1.88108 z"
       id="path28-5" /><path
       style="fill:#8c564b;fill-opacity:1;stroke:#000000;stroke-width:0.5;stroke-dasharray:none;stroke-opacity:1"
       d="m 17.454245,172.20874 c -0.90415,-0.29058 -2.959039,-0.71132 -4.566419,-0.93499 -1.607381,-0.22366 -3.2356078,-0.62467 -3.6182888,-0.89112 -0.468659,-0.32632 -0.903313,-0.37339 -1.331565,-0.1442 -0.801897,0.42916 -1.185604,-0.012 -2.06079,-2.36908 -0.601564,-1.62019 -0.835594,-1.85403 -2.394685,-2.39273 -0.950384,-0.32837 -1.825768,-0.69485 -1.945302,-0.81438 -0.119536,-0.11954 0.06509,-1.58733 0.410277,-3.26177 0.345186,-1.67443 0.610991,-3.56325 0.590679,-4.19738 -0.02188,-0.68311 0.172974,-1.23349 0.478171,-1.35061 0.283308,-0.10871 0.71451,-0.86322 0.958231,-1.67668 0.243718,-0.81346 0.923589,-2.01399 1.510826,-2.66784 0.587235,-0.65385 1.295509,-1.72958 1.573943,-2.39052 0.384725,-0.91326 1.002744,-1.42902 2.574698,-2.14868 1.8210548,-0.83371 2.3661228,-0.91931 4.5571478,-0.71567 1.615017,0.15009 2.57347,0.0941 2.73018,-0.15944 0.132818,-0.21491 0.512543,-0.28401 0.843836,-0.15356 0.33129,0.13045 1.811647,0.47102 3.289681,0.75681 1.478034,0.2858 3.204141,0.75389 3.835794,1.0402 0.63165,0.28632 2.304039,0.62757 3.716414,0.75834 3.470431,0.32132 4.084989,0.84356 4.510519,3.83293 0.192217,1.35033 0.745662,3.0836 1.283118,4.01845 0.536591,0.93334 0.947007,2.21765 0.949505,2.97128 l 0.0044,1.32737 2.371548,0.25397 c 2.279618,0.24413 2.383094,0.29887 2.669569,1.41248 0.246509,0.95826 0.49961,1.1783 1.464246,1.27299 0.641422,0.063 1.166225,0.26734 1.166225,0.45417 0,0.18683 -0.698664,1.24433 -1.552583,2.35 -1.184621,1.53386 -1.780733,2.01064 -2.515248,2.0117 -0.529463,7.9e-4 -1.814486,0.2765 -2.855603,0.61274 -1.742641,0.56281 -2.028788,0.56526 -3.60376,0.0309 -2.051462,-0.69604 -5.496441,-0.40086 -6.560536,0.56214 -0.378132,0.3422 -1.126644,0.62219 -1.663362,0.62219 -1.062127,0 -2.437101,1.13357 -2.437101,2.00922 0,0.71027 -2.126874,0.69609 -4.383764,-0.0292 z"
       id="path46-6" /><path
       style="fill:#e377c2;fill-opacity:1;stroke:#000000;stroke-width:0.5;stroke-dasharray:none;stroke-opacity:1"
       d="m 32.432107,190.55291 c 0,-0.47521 0.340106,-1.29639 0.75579,-1.82485 1.425705,-1.81249 -0.07527,-3.15615 -3.525676,-3.15615 -1.432399,0 -1.765313,-0.19746 -3.931325,-2.33172 -1.460518,-1.4391 -3.183006,-2.70665 -4.499573,-3.31113 -1.173242,-0.53869 -2.597488,-1.2149 -3.164993,-1.50271 -1.567434,-0.79491 -8.2860058,-2.0723 -9.8362528,-1.87014 l -1.369925,0.17865 v -2.33978 c 0,-1.63177 0.138176,-2.33779 0.456641,-2.33322 2.283984,0.0328 11.7231928,1.92519 13.3626698,2.67902 1.204574,0.55386 2.740777,-0.36167 2.986416,-1.7798 0.155681,-0.89877 0.399624,-1.11152 1.474949,-1.28631 0.708631,-0.11518 1.529421,-0.36437 1.823982,-0.55374 0.935421,-0.6014 5.215112,-0.73556 5.403828,-0.16941 0.218829,0.65648 3.261165,0.41724 4.529731,-0.35621 2.441408,-1.48852 4.075001,-0.62316 3.182024,1.68563 -0.267507,0.69163 -0.32979,2.55689 -0.18153,5.43662 0.279169,5.42254 -0.289809,8.37234 -1.832079,9.49816 -0.550486,0.40185 -1.904677,1.51148 -3.009307,2.46587 -1.104633,0.95438 -2.147236,1.73524 -2.316895,1.73524 -0.169662,0 -0.308475,-0.38881 -0.308475,-0.86402 z"
       id="path47-2" /><path
       style="fill:#438dc0;fill-opacity:1;stroke:#000000;stroke-width:0.5;stroke-dasharray:none;stroke-opacity:1"
       d="m 7.9140242,222.02479 c -0.08568,-1.70024 0.125233,-2.16476 1.619269,-3.56629 1.7517208,-1.64325 1.6496048,-2.30735 -0.514464,-3.34587 -0.725197,-0.348 -1.632672,-1.25627 -2.172573,-2.17445 -0.590997,-1.0051 -1.584423,-1.95943 -2.739851,-2.63202 -0.996971,-0.58035 -2.227894,-1.44669 -2.735386,-1.92519 -0.870678,-0.82095 -4.235813,-2.71197 -4.83193,-2.71528 -0.151214,-8e-4 -0.869005,-0.6591 -1.595091,-1.46279 -1.427122,-1.57965 -2.107337,-1.77697 -3.082721,-0.89426 -0.575397,0.52073 -0.691247,0.46225 -1.419897,-0.71673 -0.436358,-0.70604 -1.7845612,-2.11193 -2.9960012,-3.12419 -1.988728,-1.66173 -2.3769,-1.84046 -3.997246,-1.84046 -0.987044,0 -1.794623,-0.16233 -1.794623,-0.36073 0,-0.1984 0.616465,-0.75699 1.369925,-1.2413 1.199417,-0.77097 3.379152,-2.94752 3.379152,-3.37422 0,-0.34598 5.3168632,-5.63315 5.8325522,-5.79998 0.308239,-0.0997 0.834599,-0.66466 1.169686,-1.25543 0.335087,-0.59077 1.321432,-1.43527 2.191879,-1.87667 0.87045,-0.4414 2.119921,-1.27122 2.776604,-1.84404 0.656683,-0.57283 1.643031,-1.14609 2.191882,-1.27392 0.548852,-0.12783 1.782377,-0.72503 2.741166,-1.3271 1.700543,-1.06786 1.825844,-1.08927 5.11439,-0.87371 4.9181098,0.32236 7.6106288,0.75482 8.8508438,1.42155 0.602766,0.32405 2.041589,1.02293 3.197381,1.55308 1.24867,0.57275 2.805251,1.70894 3.835795,2.79986 2.048242,2.16824 3.939931,3.22383 5.777333,3.22383 1.129405,0 1.290608,0.0973 1.058828,0.6393 -0.150373,0.35161 -0.349557,1.08146 -0.44263,1.62189 -0.09307,0.54042 -0.480798,1.26456 -0.861615,1.6092 -0.966417,0.87459 -0.863658,1.55142 0.312213,2.05643 0.552538,0.23729 1.056474,0.46372 1.119863,0.50317 0.06339,0.0394 -0.367253,1.0336 -0.956972,2.20924 -0.589722,1.17564 -1.196086,2.5485 -1.347478,3.0508 -0.781701,2.59364 -5.81252,8.30151 -9.261263,10.50764 -3.065007,1.96067 -4.933296,4.08596 -5.884029,6.69343 -0.824979,2.26258 -3.203689,5.14683 -5.0672208,6.14418 -0.706776,0.37825 -0.800404,0.33255 -0.837771,-0.40897 z"
       id="path48-9" /><path
       style="fill:#438dc0;fill-opacity:1;stroke:#438dc0;stroke-width:1;stroke-dasharray:none;stroke-opacity:1"
       d="m 54.737751,212.78777 v -3.10516 h 5.297048 5.297046 v 3.10516 3.10517 h -5.297046 -5.297048 z"
       id="path69-1" /><text
       xml:space="preserve"
       style="font-style:normal;font-variant:normal;font-weight:normal;font-stretch:normal;font-size:7.05556px;font-family:sans-serif;-inkscape-font-specification:'sans-serif, ';font-variant-ligatures:normal;font-variant-caps:normal;font-variant-numeric:normal;font-variant-east-asian:normal;fill:#438dc0;fill-opacity:1;stroke:none;stroke-width:0;stroke-dasharray:none;stroke-opacity:1"
       x="71.855484"
       y="215.48051"
       id="text69-0-2"><tspan
         sodipodi:role="line"
         id="tspan69-8-7"
         style="font-style:normal;font-variant:normal;font-weight:bold;font-stretch:normal;font-size:7.05556px;font-family:'Nimbus Roman';-inkscape-font-specification:'Nimbus Roman, Bold';font-variant-ligatures:normal;font-variant-caps:normal;font-variant-numeric:normal;font-variant-east-asian:normal;fill:#438dc0;fill-opacity:1;stroke:none;stroke-width:0;stroke-opacity:1"
         x="71.855484"
         y="215.48051">RS</tspan></text><path
       style="fill:#e377c2;fill-opacity:1;stroke:#e377c2;stroke-width:1;stroke-dasharray:none;stroke-opacity:1"
       d="m 54.782816,200.95889 v -3.10516 h 5.297048 5.297046 v 3.10516 3.10517 h -5.297046 -5.297048 z"
       id="path69-1-0" /><text
       xml:space="preserve"
       style="font-style:normal;font-variant:normal;font-weight:normal;font-stretch:normal;font-size:7.05556px;font-family:sans-serif;-inkscape-font-specification:'sans-serif, ';font-variant-ligatures:normal;font-variant-caps:normal;font-variant-numeric:normal;font-variant-east-asian:normal;fill:#e377c2;fill-opacity:1;stroke:none;stroke-width:0;stroke-dasharray:none;stroke-opacity:1"
       x="71.900551"
       y="203.65164"
       id="text69-0-2-2"><tspan
         sodipodi:role="line"
         id="tspan69-8-7-3"
         style="font-style:normal;font-variant:normal;font-weight:bold;font-stretch:normal;font-size:7.05556px;font-family:'Nimbus Roman';-inkscape-font-specification:'Nimbus Roman, Bold';font-variant-ligatures:normal;font-variant-caps:normal;font-variant-numeric:normal;font-variant-east-asian:normal;fill:#e377c2;fill-opacity:1;stroke-width:0"
         x="71.900551"
         y="203.65164">SC</tspan></text><path
       style="fill:#8c564b;fill-opacity:1;stroke:#8c564b;stroke-width:1;stroke-dasharray:none;stroke-opacity:1"
       d="m 54.882645,188.89536 v -3.10516 h 5.297048 5.297046 v 3.10516 3.10517 h -5.297046 -5.297048 z"
       id="path69-1-0-2" /><text
       xml:space="preserve"
       style="font-style:normal;font-variant:normal;font-weight:normal;font-stretch:normal;font-size:7.05556px;font-family:sans-serif;-inkscape-font-specification:'sans-serif, ';font-variant-ligatures:normal;font-variant-caps:normal;font-variant-numeric:normal;font-variant-east-asian:normal;fill:#8c564b;fill-opacity:1;stroke:none;stroke-width:0;stroke-dasharray:none;stroke-opacity:1"
       x="72.000381"
       y="191.58812"
       id="text69-0-2-2-2"><tspan
         sodipodi:role="line"
         id="tspan69-8-7-3-8"
         style="font-style:normal;font-variant:normal;font-weight:bold;font-stretch:normal;font-size:7.05556px;font-family:'Nimbus Roman';-inkscape-font-specification:'Nimbus Roman, Bold';font-variant-ligatures:normal;font-variant-caps:normal;font-variant-numeric:normal;font-variant-east-asian:normal;fill:#8c564b;fill-opacity:1;stroke-width:0"
         x="72.000381"
         y="191.58812">PR</tspan></text><path
       style="fill:#cecece;fill-opacity:1;stroke:#000000;stroke-width:0.367731"
       d="m 44.209901,162.53075 c -0.0099,-0.57321 -0.40105,-0.85133 -1.197149,-0.85133 -0.855769,0 -1.225296,-0.30234 -1.33781,-1.09457 -0.132953,-0.93614 -0.493676,-1.11619 -2.492103,-1.2439 -1.882402,-0.1203 -2.309474,-0.30974 -2.196859,-0.97448 0.07688,-0.45382 -0.371189,-1.65191 -0.995717,-2.66242 -0.624528,-1.0105 -1.135504,-2.57363 -1.135504,-3.47361 0,-1.09705 -0.476623,-2.21456 -1.4462,-3.39082 -1.35383,-1.64244 -1.624152,-1.7545 -4.232346,-1.7545 -1.532382,0 -2.994115,-0.18084 -3.2483,-0.40188 -0.619313,-0.53856 -4.238374,-1.6551 -4.84468,-1.49467 -0.265231,0.0702 -1.405678,-0.1637 -2.534327,-0.51973 -1.349833,-0.42581 -2.265468,-0.48628 -2.67562,-0.17673 -0.342942,0.25884 -1.280276,0.3436 -2.082961,0.18837 l -1.459431,-0.28224 1.76009,-1.08894 c 1.743046,-1.0784 1.941893,-1.08894 20.538366,-1.08894 16.038358,0 18.739527,0.10098 18.512691,0.6921 -0.146071,0.38065 0.134443,1.09513 0.623364,1.58772 0.488924,0.49259 1.170935,1.52324 1.515586,2.29034 0.593379,1.3207 0.745683,1.37841 2.86978,1.08727 1.233728,-0.16911 2.558216,-0.56895 2.943312,-0.88855 0.38509,-0.3196 1.765125,-0.95612 3.066743,-1.41451 2.026452,-0.71364 2.44834,-0.73491 2.935433,-0.14799 0.312872,0.37699 1.144066,0.70806 1.847098,0.73571 1.054272,0.0415 0.949847,0.13724 -0.595992,0.54662 -1.427496,0.37803 -2.029516,0.86797 -2.525689,2.05548 -0.745945,1.78529 -4.02174,4.15829 -5.740289,4.15829 -1.371478,0 -7.711701,3.07782 -8.63705,4.19279 -0.35343,0.42586 -1.899994,1.62817 -3.43681,2.6718 -1.536814,1.04363 -3.01665,2.27937 -3.28852,2.74608 -0.469736,0.80639 -0.495048,0.80625 -0.509106,-0.003 z"
       id="path2-0" /><path
       style="fill:#cecece;fill-opacity:1;stroke:#000000;stroke-width:0.367731"
       d="m 73.004836,147.21864 c -0.877282,-0.10849 -1.562814,-0.45655 -1.52341,-0.77348 0.178916,-1.43896 -0.133472,-1.79242 -1.58414,-1.79242 -1.976567,0 -1.524196,-0.42401 1.641951,-1.539 2.029302,-0.71465 3.999095,-0.89338 9.845802,-0.89338 h 7.308972 l -1.565791,1.09457 c -1.091195,0.7628 -1.568339,1.48748 -1.574199,2.39087 -0.0082,1.25461 -0.110951,1.30155 -3.196477,1.45943 -2.839664,0.14531 -3.163641,0.0701 -2.964529,-0.68772 0.122947,-0.46797 0.01556,-0.97939 -0.238659,-1.1365 -0.633021,-0.39123 -2.952938,1.1869 -2.595348,1.76549 0.286064,0.46286 -0.51398,0.4881 -3.554172,0.11214 z"
       id="path3-9" /><path
       style="fill:#cecece;fill-opacity:1;stroke:#000000;stroke-width:0.367731"
       d="m 56.681341,146.27433 c -0.178377,-0.17838 -0.324318,-0.71091 -0.324318,-1.18341 0,-0.4725 -0.449879,-1.00188 -0.999734,-1.17639 -0.549852,-0.17452 -0.914977,-0.57237 -0.81139,-0.88412 0.130033,-0.39133 2.435125,-0.59887 7.445547,-0.67036 l 7.257204,-0.10354 -3.162097,1.19004 c -1.739154,0.65453 -3.820911,1.19368 -4.626125,1.19812 -0.930963,0.005 -1.685269,0.36233 -2.071648,0.98102 -0.592373,0.94854 -2.056718,1.29936 -2.707439,0.64864 z"
       id="path4-3" /><path
       style="fill:#cecece;fill-opacity:1;stroke:#000000;stroke-width:0.367731"
       d="m 0.9590892,154.07552 c -0.455324,-0.51444 -1.077468,-0.65296 -1.945905,-0.43326 -0.702122,0.17762 -1.971347,0.43879 -2.820495,0.58037 -1.526482,0.25451 -1.547408,0.23078 -1.853679,-2.10223 -0.170373,-1.29781 -0.500724,-2.83018 -0.734115,-3.40526 -0.233389,-0.57509 -0.324168,-1.45075 -0.201727,-1.94591 0.389626,-1.57569 -1.49666,-3.97247 -3.301452,-4.19493 -0.8844942,-0.10903 3.974145,-0.22039 10.796979,-0.24748 9.7762908,-0.0388 12.2088298,0.0736 11.4787408,0.53024 -0.509529,0.31872 -1.6041,1.1364 -2.4323828,1.81706 -0.828286,0.68066 -2.088962,1.60363 -2.801509,2.05104 -0.730983,0.45899 -1.436796,1.45663 -1.619702,2.28939 -0.17829,0.81175 -0.600004,1.47591 -0.937138,1.47591 -0.707774,0 -1.742102,2.03542 -1.742102,3.42823 0,1.13219 -0.95214,1.21139 -1.885513,0.15683 z"
       id="path5-6" /></g></svg>
